<svg xmlns="http://www.w3.org/2000/svg" xmlns:xlink="http://www.w3.org/1999/xlink" width="500" zoomAndPan="magnify" viewBox="0 0 375 374.999991" height="500" preserveAspectRatio="xMidYMid meet" version="1.0"><defs><g/><clipPath id="3d267badd5"><path d="M 24.804688 16.605469 L 350.195312 16.605469 L 350.195312 341.992188 L 24.804688 341.992188 Z M 24.804688 16.605469 " clip-rule="nonzero"/></clipPath><clipPath id="1dec27810c"><path d="M 62.304688 16.605469 L 312.695312 16.605469 C 333.40625 16.605469 350.195312 33.394531 350.195312 54.105469 L 350.195312 304.492188 C 350.195312 325.203125 333.40625 341.992188 312.695312 341.992188 L 62.304688 341.992188 C 41.59375 341.992188 24.804688 325.203125 24.804688 304.492188 L 24.804688 54.105469 C 24.804688 33.394531 41.59375 16.605469 62.304688 16.605469 Z M 62.304688 16.605469 " clip-rule="nonzero"/></clipPath><clipPath id="121599ca52"><path d="M 0.804688 0.605469 L 326.195312 0.605469 L 326.195312 325.992188 L 0.804688 325.992188 Z M 0.804688 0.605469 " clip-rule="nonzero"/></clipPath><clipPath id="773771bd42"><path d="M 38.304688 0.605469 L 288.695312 0.605469 C 309.40625 0.605469 326.195312 17.394531 326.195312 38.105469 L 326.195312 288.492188 C 326.195312 309.203125 309.40625 325.992188 288.695312 325.992188 L 38.304688 325.992188 C 17.59375 325.992188 0.804688 309.203125 0.804688 288.492188 L 0.804688 38.105469 C 0.804688 17.394531 17.59375 0.605469 38.304688 0.605469 Z M 38.304688 0.605469 " clip-rule="nonzero"/></clipPath><clipPath id="08b79650e1"><rect x="0" width="327" y="0" height="326"/></clipPath><clipPath id="a00b459ca9"><path d="M 38 3 L 375 3 L 375 326 L 38 326 Z M 38 3 " clip-rule="nonzero"/></clipPath><clipPath id="31e916c966"><path d="M 252.648438 3.609375 L 375.085938 133.691406 L 122.390625 371.535156 L -0.046875 241.453125 Z M 252.648438 3.609375 " clip-rule="nonzero"/></clipPath><clipPath id="8002f13e3a"><path d="M 331.167969 -70.292969 L 453.605469 59.789062 L 122.484375 371.449219 L 0.046875 241.363281 Z M 331.167969 -70.292969 " clip-rule="nonzero"/></clipPath><clipPath id="8f9cfb2d03"><path d="M 258.175781 24.492188 L 316.132812 24.492188 L 316.132812 60.589844 L 258.175781 60.589844 Z M 258.175781 24.492188 " clip-rule="nonzero"/></clipPath><clipPath id="73d84e0dfe"><path d="M 276.226562 24.492188 L 298.035156 24.492188 C 308.003906 24.492188 316.085938 32.570312 316.085938 42.539062 C 316.085938 52.507812 308.003906 60.589844 298.035156 60.589844 L 276.226562 60.589844 C 266.257812 60.589844 258.175781 52.507812 258.175781 42.539062 C 258.175781 32.570312 266.257812 24.492188 276.226562 24.492188 Z M 276.226562 24.492188 " clip-rule="nonzero"/></clipPath><clipPath id="9046f86855"><path d="M 0.175781 0.492188 L 58.132812 0.492188 L 58.132812 36.589844 L 0.175781 36.589844 Z M 0.175781 0.492188 " clip-rule="nonzero"/></clipPath><clipPath id="98b495e8a4"><path d="M 18.226562 0.492188 L 40.035156 0.492188 C 50.003906 0.492188 58.085938 8.570312 58.085938 18.539062 C 58.085938 28.507812 50.003906 36.589844 40.035156 36.589844 L 18.226562 36.589844 C 8.257812 36.589844 0.175781 28.507812 0.175781 18.539062 C 0.175781 8.570312 8.257812 0.492188 18.226562 0.492188 Z M 18.226562 0.492188 " clip-rule="nonzero"/></clipPath><clipPath id="623ece0196"><rect x="0" width="59" y="0" height="37"/></clipPath><clipPath id="b3afb0fd17"><path d="M 260.628906 44.832031 L 318.535156 44.832031 L 318.535156 60.589844 L 260.628906 60.589844 Z M 260.628906 44.832031 " clip-rule="nonzero"/></clipPath><clipPath id="3871401a9f"><path d="M 0.628906 0.832031 L 58.535156 0.832031 L 58.535156 16.589844 L 0.628906 16.589844 Z M 0.628906 0.832031 " clip-rule="nonzero"/></clipPath><clipPath id="aef9d03302"><rect x="0" width="59" y="0" height="17"/></clipPath><clipPath id="38281a9c5a"><path d="M 57 0.078125 L 67 0.078125 L 67 50 L 57 50 Z M 57 0.078125 " clip-rule="nonzero"/></clipPath><clipPath id="1cc4c440ff"><path d="M 113 0.078125 L 123 0.078125 L 123 50 L 113 50 Z M 113 0.078125 " clip-rule="nonzero"/></clipPath><clipPath id="e26becd61d"><rect x="0" width="128" y="0" height="65"/></clipPath><clipPath id="51705132e9"><rect x="0" width="375" y="0" height="372"/></clipPath></defs><g transform="matrix(1, 0, 0, 1, 0, 0)"><g clip-path="url(#51705132e9)"><g clip-path="url(#3d267badd5)"><g clip-path="url(#1dec27810c)"><g transform="matrix(1, 0, 0, 1, 24, 16)"><g clip-path="url(#08b79650e1)"><g clip-path="url(#121599ca52)"><g clip-path="url(#773771bd42)"><path fill="#2522ca" d="M 0.804688 0.605469 L 326.195312 0.605469 L 326.195312 325.992188 L 0.804688 325.992188 Z M 0.804688 0.605469 " fill-opacity="1" fill-rule="nonzero"/></g></g></g></g></g></g><g clip-path="url(#a00b459ca9)"><g clip-path="url(#31e916c966)"><g clip-path="url(#8002f13e3a)"><path fill="#fff9eb" d="M 183.558594 197.671875 C 182.046875 166.351562 179.910156 131.390625 187.402344 110.433594 C 202.742188 67.519531 236.3125 65.878906 268.613281 74.15625 C 268.84375 83.929688 269.453125 93.777344 269.921875 103.40625 C 271.433594 134.722656 273.570312 169.683594 266.078125 190.644531 C 250.738281 233.554688 217.167969 235.199219 184.867188 226.917969 C 184.636719 217.144531 184.027344 207.296875 183.558594 197.671875 Z M 184.9375 237.035156 C 217.332031 245.246094 256.5 245.082031 284.296875 218.914062 C 323.109375 182.386719 314.847656 139.90625 309.964844 103.914062 C 309.152344 97.9375 297.738281 27.429688 325 1.765625 C 347.277344 -19.199219 371.46875 -12.640625 389.171875 6.167969 C 415.164062 33.78125 381.941406 46.5 371.078125 56.726562 C 366.453125 61.082031 362.679688 66.378906 362.789062 72.726562 C 362.867188 77.378906 364.617188 82.007812 368.054688 85.664062 C 368.257812 85.878906 368.457031 86.085938 368.664062 86.289062 C 374.855469 92.308594 384.566406 92.824219 391.640625 87.878906 C 425.433594 64.246094 420.121094 24.554688 394.707031 -2.449219 C 368.007812 -30.8125 320.488281 -31.410156 292.121094 -4.710938 C 273.207031 13.089844 268.816406 37.929688 268.542969 64.039062 C 236.148438 55.832031 196.980469 55.996094 169.179688 82.160156 C 130.371094 118.691406 138.632812 161.167969 143.515625 197.164062 C 144.332031 203.140625 155.742188 273.648438 128.476562 299.3125 C 106.203125 320.273438 82.007812 313.714844 64.308594 294.910156 C 38.316406 267.296875 71.539062 254.574219 82.402344 244.351562 C 87.03125 239.996094 90.800781 234.695312 90.691406 228.347656 C 90.613281 223.699219 88.863281 219.066406 85.425781 215.414062 C 85.222656 215.199219 85.023438 214.992188 84.816406 214.789062 C 78.625 208.769531 68.914062 208.253906 61.839844 213.199219 C 28.046875 236.832031 33.359375 276.523438 58.773438 303.523438 C 85.472656 331.890625 132.992188 332.488281 161.359375 305.789062 C 180.273438 287.988281 184.667969 263.144531 184.9375 237.035156 " fill-opacity="1" fill-rule="nonzero"/></g></g></g><g clip-path="url(#8f9cfb2d03)"><g clip-path="url(#73d84e0dfe)"><g transform="matrix(1, 0, 0, 1, 258, 24)"><g clip-path="url(#623ece0196)"><g clip-path="url(#9046f86855)"><g clip-path="url(#98b495e8a4)"><path fill="#2522ca" d="M 0.175781 0.492188 L 58.132812 0.492188 L 58.132812 36.589844 L 0.175781 36.589844 Z M 0.175781 0.492188 " fill-opacity="1" fill-rule="nonzero"/></g></g></g></g></g></g><g clip-path="url(#b3afb0fd17)"><g transform="matrix(1, 0, 0, 1, 260, 44)"><g clip-path="url(#aef9d03302)"><g clip-path="url(#3871401a9f)"><path fill="#2522ca" d="M 0.628906 0.832031 L 58.542969 0.832031 L 58.542969 16.589844 L 0.628906 16.589844 Z M 0.628906 0.832031 " fill-opacity="1" fill-rule="nonzero"/></g></g></g></g><g transform="matrix(1, 0, 0, 1, 200, 268)"><g clip-path="url(#e26becd61d)"><g fill="#fff9eb" fill-opacity="1"><g transform="translate(0.621007, 49.287794)"><g><path d="M 16.34375 -10.046875 L 21.375 -35.640625 L 30.8125 -35.640625 L 36.1875 -10.046875 L 36.3125 -10.046875 L 41.875 -35.640625 L 51.515625 -35.640625 L 41.265625 0 L 31.625 0 L 26.0625 -26 L 25.921875 -26 L 20.375 0 L 10.71875 0 L 0.671875 -35.640625 L 10.65625 -35.640625 L 16.21875 -10.046875 Z M 16.34375 -10.046875 "/></g></g></g><g clip-path="url(#38281a9c5a)"><g fill="#fff9eb" fill-opacity="1"><g transform="translate(52.741745, 49.287794)"><g><path d="M 4.625 -39.859375 L 4.625 -48.578125 L 14 -48.578125 L 14 -39.859375 Z M 4.625 0 L 4.625 -35.640625 L 14 -35.640625 L 14 0 Z M 4.625 0 "/></g></g></g></g><g fill="#fff9eb" fill-opacity="1"><g transform="translate(71.365867, 49.287794)"><g><path d="M 25.796875 -35.640625 L 37.3125 -35.640625 L 24.71875 -21.84375 L 37.65625 0 L 26.390625 0 L 17.890625 -15.28125 L 14 -11.25 L 14 0 L 4.625 0 L 4.625 -48.109375 L 14 -48.109375 L 14 -22.109375 Z M 25.796875 -35.640625 "/></g></g></g><g clip-path="url(#1cc4c440ff)"><g fill="#fff9eb" fill-opacity="1"><g transform="translate(108.614111, 49.287794)"><g><path d="M 4.625 -39.859375 L 4.625 -48.578125 L 14 -48.578125 L 14 -39.859375 Z M 4.625 0 L 4.625 -35.640625 L 14 -35.640625 L 14 0 Z M 4.625 0 "/></g></g></g></g></g></g></g></g></svg>