<svg xmlns="http://www.w3.org/2000/svg" xmlns:xlink="http://www.w3.org/1999/xlink" width="500" zoomAndPan="magnify" viewBox="0 0 375 374.999991" height="500" preserveAspectRatio="xMidYMid meet" version="1.0"><defs><g/><clipPath id="c24e247b7e"><path d="M 37.5 37.5 L 337.5 37.5 L 337.5 337.5 L 37.5 337.5 Z M 37.5 37.5 " clip-rule="nonzero"/></clipPath><clipPath id="1c7884c7d4"><path d="M 54.75 37.5 L 320.25 37.5 C 324.824219 37.5 329.210938 39.316406 332.449219 42.550781 C 335.683594 45.789062 337.5 50.175781 337.5 54.75 L 337.5 320.25 C 337.5 324.824219 335.683594 329.210938 332.449219 332.449219 C 329.210938 335.683594 324.824219 337.5 320.25 337.5 L 54.75 337.5 C 50.175781 337.5 45.789062 335.683594 42.550781 332.449219 C 39.316406 329.210938 37.5 324.824219 37.5 320.25 L 37.5 54.75 C 37.5 50.175781 39.316406 45.789062 42.550781 42.550781 C 45.789062 39.316406 50.175781 37.5 54.75 37.5 Z M 54.75 37.5 " clip-rule="nonzero"/></clipPath><clipPath id="5860412adf"><path d="M 0.5 0.5 L 300.5 0.5 L 300.5 300.5 L 0.5 300.5 Z M 0.5 0.5 " clip-rule="nonzero"/></clipPath><clipPath id="a95e4f20a4"><path d="M 17.75 0.5 L 283.25 0.5 C 287.824219 0.5 292.210938 2.316406 295.449219 5.550781 C 298.683594 8.789062 300.5 13.175781 300.5 17.75 L 300.5 283.25 C 300.5 287.824219 298.683594 292.210938 295.449219 295.449219 C 292.210938 298.683594 287.824219 300.5 283.25 300.5 L 17.75 300.5 C 13.175781 300.5 8.789062 298.683594 5.550781 295.449219 C 2.316406 292.210938 0.5 287.824219 0.5 283.25 L 0.5 17.75 C 0.5 13.175781 2.316406 8.789062 5.550781 5.550781 C 8.789062 2.316406 13.175781 0.5 17.75 0.5 Z M 17.75 0.5 " clip-rule="nonzero"/></clipPath><clipPath id="78d494de58"><rect x="0" width="301" y="0" height="301"/></clipPath><clipPath id="116ca46865"><path d="M 66.183594 288.289062 L 72.03125 288.289062 L 72.03125 294.140625 L 66.183594 294.140625 Z M 66.183594 288.289062 " clip-rule="nonzero"/></clipPath><clipPath id="6cdd8cd9a3"><path d="M 69.105469 288.289062 C 67.492188 288.289062 66.183594 289.597656 66.183594 291.214844 C 66.183594 292.828125 67.492188 294.140625 69.105469 294.140625 C 70.722656 294.140625 72.03125 292.828125 72.03125 291.214844 C 72.03125 289.597656 70.722656 288.289062 69.105469 288.289062 Z M 69.105469 288.289062 " clip-rule="nonzero"/></clipPath><clipPath id="e19d71977f"><path d="M 0.183594 0.289062 L 6.03125 0.289062 L 6.03125 6.140625 L 0.183594 6.140625 Z M 0.183594 0.289062 " clip-rule="nonzero"/></clipPath><clipPath id="82173dbd27"><path d="M 3.105469 0.289062 C 1.492188 0.289062 0.183594 1.597656 0.183594 3.214844 C 0.183594 4.828125 1.492188 6.140625 3.105469 6.140625 C 4.722656 6.140625 6.03125 4.828125 6.03125 3.214844 C 6.03125 1.597656 4.722656 0.289062 3.105469 0.289062 Z M 3.105469 0.289062 " clip-rule="nonzero"/></clipPath><clipPath id="9ded5f6d32"><rect x="0" width="7" y="0" height="7"/></clipPath><clipPath id="80bb97b178"><path d="M 66.183594 295.640625 L 72.03125 295.640625 L 72.03125 301.488281 L 66.183594 301.488281 Z M 66.183594 295.640625 " clip-rule="nonzero"/></clipPath><clipPath id="6244af0af8"><path d="M 69.105469 295.640625 C 67.492188 295.640625 66.183594 296.949219 66.183594 298.5625 C 66.183594 300.179688 67.492188 301.488281 69.105469 301.488281 C 70.722656 301.488281 72.03125 300.179688 72.03125 298.5625 C 72.03125 296.949219 70.722656 295.640625 69.105469 295.640625 Z M 69.105469 295.640625 " clip-rule="nonzero"/></clipPath><clipPath id="b313a9c7c3"><path d="M 0.183594 0.640625 L 6.03125 0.640625 L 6.03125 6.488281 L 0.183594 6.488281 Z M 0.183594 0.640625 " clip-rule="nonzero"/></clipPath><clipPath id="a414d37896"><path d="M 3.105469 0.640625 C 1.492188 0.640625 0.183594 1.949219 0.183594 3.5625 C 0.183594 5.179688 1.492188 6.488281 3.105469 6.488281 C 4.722656 6.488281 6.03125 5.179688 6.03125 3.5625 C 6.03125 1.949219 4.722656 0.640625 3.105469 0.640625 Z M 3.105469 0.640625 " clip-rule="nonzero"/></clipPath><clipPath id="1209988dcc"><rect x="0" width="7" y="0" height="7"/></clipPath></defs><g clip-path="url(#c24e247b7e)"><g clip-path="url(#1c7884c7d4)"><g transform="matrix(1, 0, 0, 1, 37, 37)"><g clip-path="url(#78d494de58)"><g clip-path="url(#5860412adf)"><g clip-path="url(#a95e4f20a4)"><path fill="#303030" d="M 0.5 0.5 L 300.5 0.5 L 300.5 300.5 L 0.5 300.5 Z M 0.5 0.5 " fill-opacity="1" fill-rule="nonzero"/></g></g></g></g></g></g><g fill="#fff9eb" fill-opacity="1"><g transform="translate(37.449679, 286.064396)"><g><path d="M 28.765625 -2.546875 C 28.765625 -3.359375 29.054688 -4.046875 29.640625 -4.609375 C 30.222656 -5.179688 30.875 -5.46875 31.59375 -5.46875 C 32.34375 -5.46875 33.015625 -5.179688 33.609375 -4.609375 C 34.210938 -4.046875 34.515625 -3.359375 34.515625 -2.546875 C 34.515625 -1.765625 34.210938 -1.09375 33.609375 -0.53125 C 33.015625 0.0195312 32.34375 0.296875 31.59375 0.296875 C 30.875 0.296875 30.222656 0.0195312 29.640625 -0.53125 C 29.054688 -1.09375 28.765625 -1.765625 28.765625 -2.546875 Z M 28.765625 -2.546875 "/></g></g></g><g fill="#fff9eb" fill-opacity="1"><g transform="translate(97.457103, 286.064396)"><g><path d="M 15.140625 -15.28125 L 17.1875 -4.890625 L 19.78125 -15.28125 L 29.203125 -52.828125 L 31.640625 -52.828125 L 41.0625 -15.28125 L 43.609375 -4.890625 L 45.703125 -15.28125 L 54.296875 -52.828125 L 57.078125 -52.828125 L 44.921875 0 L 42.53125 0 L 32.125 -39.703125 L 30.421875 -48.09375 L 28.5625 -39.703125 L 18.3125 0 L 15.921875 0 L 3.765625 -52.828125 L 6.546875 -52.828125 Z M 15.140625 -15.28125 "/></g></g></g><g fill="#fff9eb" fill-opacity="1"><g transform="translate(157.464526, 286.064396)"><g><path d="M 11.671875 -52.828125 L 33.6875 -52.828125 L 33.6875 -2.640625 L 52.4375 -2.640625 L 52.4375 0 L 11.671875 0 L 11.671875 -2.640625 L 31.0625 -2.640625 L 31.0625 -50.203125 L 11.671875 -50.203125 Z M 28.8125 -67.875 C 28.8125 -68.332031 28.859375 -68.78125 28.953125 -69.21875 C 29.054688 -69.65625 29.238281 -70.046875 29.5 -70.390625 C 29.757812 -70.734375 30.109375 -71 30.546875 -71.1875 C 30.984375 -71.382812 31.546875 -71.484375 32.234375 -71.484375 C 32.878906 -71.484375 33.421875 -71.382812 33.859375 -71.1875 C 34.296875 -71 34.65625 -70.734375 34.9375 -70.390625 C 35.21875 -70.046875 35.410156 -69.65625 35.515625 -69.21875 C 35.628906 -68.78125 35.6875 -68.332031 35.6875 -67.875 C 35.6875 -66.988281 35.4375 -66.1875 34.9375 -65.46875 C 34.4375 -64.757812 33.535156 -64.40625 32.234375 -64.40625 C 30.890625 -64.40625 29.984375 -64.757812 29.515625 -65.46875 C 29.046875 -66.1875 28.8125 -66.988281 28.8125 -67.875 Z M 28.8125 -67.875 "/></g></g></g><g fill="#fff9eb" fill-opacity="1"><g transform="translate(217.471949, 286.064396)"><g><path d="M 23.578125 -28.609375 L 23.390625 -28.46875 L 15.234375 -21.828125 L 15.234375 0 L 12.546875 0 L 12.546875 -75 L 15.234375 -75 L 15.234375 -24.65625 L 21.921875 -30.609375 L 47.515625 -52.828125 L 51.421875 -52.828125 L 25.640625 -30.375 L 53.03125 0 L 49.515625 0 Z M 23.578125 -28.609375 "/></g></g></g><g fill="#fff9eb" fill-opacity="1"><g transform="translate(277.479372, 286.064396)"><g><path d="M 11.671875 -52.828125 L 33.6875 -52.828125 L 33.6875 -2.640625 L 52.4375 -2.640625 L 52.4375 0 L 11.671875 0 L 11.671875 -2.640625 L 31.0625 -2.640625 L 31.0625 -50.203125 L 11.671875 -50.203125 Z M 28.8125 -67.875 C 28.8125 -68.332031 28.859375 -68.78125 28.953125 -69.21875 C 29.054688 -69.65625 29.238281 -70.046875 29.5 -70.390625 C 29.757812 -70.734375 30.109375 -71 30.546875 -71.1875 C 30.984375 -71.382812 31.546875 -71.484375 32.234375 -71.484375 C 32.878906 -71.484375 33.421875 -71.382812 33.859375 -71.1875 C 34.296875 -71 34.65625 -70.734375 34.9375 -70.390625 C 35.21875 -70.046875 35.410156 -69.65625 35.515625 -69.21875 C 35.628906 -68.78125 35.6875 -68.332031 35.6875 -67.875 C 35.6875 -66.988281 35.4375 -66.1875 34.9375 -65.46875 C 34.4375 -64.757812 33.535156 -64.40625 32.234375 -64.40625 C 30.890625 -64.40625 29.984375 -64.757812 29.515625 -65.46875 C 29.046875 -66.1875 28.8125 -66.988281 28.8125 -67.875 Z M 28.8125 -67.875 "/></g></g></g><g fill="#fff9eb" fill-opacity="1"><g transform="translate(51.796722, 175.99999)"><g><path d="M 7.234375 -15.015625 L 7.234375 0 L 5.90625 0 L 5.90625 -35.546875 L 16.75 -35.546875 C 18.257812 -35.515625 19.664062 -35.25 20.96875 -34.75 C 22.269531 -34.257812 23.398438 -33.5625 24.359375 -32.65625 C 25.328125 -31.75 26.082031 -30.664062 26.625 -29.40625 C 27.164062 -28.144531 27.4375 -26.734375 27.4375 -25.171875 C 27.4375 -23.609375 27.160156 -22.207031 26.609375 -20.96875 C 26.054688 -19.726562 25.300781 -18.671875 24.34375 -17.796875 C 23.382812 -16.921875 22.253906 -16.242188 20.953125 -15.765625 C 19.648438 -15.285156 18.25 -15.035156 16.75 -15.015625 Z M 7.234375 -16.328125 L 16.75 -16.328125 C 18.03125 -16.347656 19.238281 -16.566406 20.375 -16.984375 C 21.519531 -17.398438 22.515625 -17.984375 23.359375 -18.734375 C 24.210938 -19.492188 24.882812 -20.410156 25.375 -21.484375 C 25.875 -22.554688 26.125 -23.769531 26.125 -25.125 C 26.125 -26.488281 25.882812 -27.722656 25.40625 -28.828125 C 24.925781 -29.941406 24.265625 -30.890625 23.421875 -31.671875 C 22.585938 -32.460938 21.59375 -33.078125 20.4375 -33.515625 C 19.289062 -33.960938 18.0625 -34.203125 16.75 -34.234375 L 7.234375 -34.234375 Z M 7.234375 -16.328125 "/></g></g></g><g fill="#fff9eb" fill-opacity="1"><g transform="translate(81.796914, 175.99999)"><g><path d="M 22.828125 -26.90625 C 23.410156 -26.90625 23.992188 -26.867188 24.578125 -26.796875 C 25.171875 -26.722656 25.734375 -26.628906 26.265625 -26.515625 L 26.125 -25.265625 C 25.65625 -25.347656 25.128906 -25.425781 24.546875 -25.5 C 23.972656 -25.570312 23.398438 -25.609375 22.828125 -25.609375 C 21.472656 -25.609375 20.15625 -25.457031 18.875 -25.15625 C 17.601562 -24.851562 16.441406 -24.351562 15.390625 -23.65625 C 14.335938 -22.96875 13.425781 -22.066406 12.65625 -20.953125 C 11.882812 -19.835938 11.320312 -18.476562 10.96875 -16.875 L 11.03125 0 L 9.515625 0 L 9.515625 -26.421875 L 10.8125 -26.421875 L 10.96875 -21.828125 L 10.96875 -20.140625 C 11.9375 -22.304688 13.4375 -23.976562 15.46875 -25.15625 C 17.507812 -26.332031 19.960938 -26.914062 22.828125 -26.90625 Z M 22.828125 -26.90625 "/></g></g></g><g fill="#fff9eb" fill-opacity="1"><g transform="translate(111.797106, 175.99999)"><g><path d="M 24.140625 0 C 23.953125 -0.832031 23.820312 -1.65625 23.75 -2.46875 C 23.6875 -3.28125 23.648438 -4.101562 23.640625 -4.9375 C 23.066406 -4.039062 22.382812 -3.25 21.59375 -2.5625 C 20.800781 -1.875 19.941406 -1.304688 19.015625 -0.859375 C 18.085938 -0.421875 17.101562 -0.0859375 16.0625 0.140625 C 15.019531 0.367188 13.953125 0.484375 12.859375 0.484375 C 11.804688 0.484375 10.773438 0.320312 9.765625 0 C 8.753906 -0.3125 7.859375 -0.765625 7.078125 -1.359375 C 6.296875 -1.960938 5.671875 -2.710938 5.203125 -3.609375 C 4.734375 -4.503906 4.5 -5.53125 4.5 -6.6875 C 4.5 -8.269531 4.878906 -9.578125 5.640625 -10.609375 C 6.398438 -11.640625 7.382812 -12.457031 8.59375 -13.0625 C 9.8125 -13.675781 11.171875 -14.101562 12.671875 -14.34375 C 14.171875 -14.59375 15.648438 -14.726562 17.109375 -14.75 L 23.640625 -14.75 L 23.640625 -18.609375 C 23.597656 -19.796875 23.347656 -20.828125 22.890625 -21.703125 C 22.441406 -22.578125 21.835938 -23.300781 21.078125 -23.875 C 20.328125 -24.445312 19.445312 -24.875 18.4375 -25.15625 C 17.4375 -25.445312 16.382812 -25.59375 15.28125 -25.59375 C 14.300781 -25.59375 13.300781 -25.460938 12.28125 -25.203125 C 11.269531 -24.941406 10.347656 -24.546875 9.515625 -24.015625 C 8.691406 -23.484375 8 -22.8125 7.4375 -22 C 6.882812 -21.195312 6.585938 -20.242188 6.546875 -19.140625 L 5.21875 -19.1875 C 5.289062 -20.476562 5.640625 -21.601562 6.265625 -22.5625 C 6.890625 -23.519531 7.675781 -24.316406 8.625 -24.953125 C 9.582031 -25.597656 10.640625 -26.082031 11.796875 -26.40625 C 12.960938 -26.738281 14.125 -26.90625 15.28125 -26.90625 C 16.582031 -26.90625 17.816406 -26.726562 18.984375 -26.375 C 20.148438 -26.03125 21.171875 -25.507812 22.046875 -24.8125 C 22.921875 -24.125 23.613281 -23.253906 24.125 -22.203125 C 24.644531 -21.148438 24.921875 -19.9375 24.953125 -18.5625 L 24.953125 -5.328125 C 24.960938 -4.429688 25.039062 -3.570312 25.1875 -2.75 C 25.34375 -1.9375 25.5 -1.09375 25.65625 -0.21875 L 25.6875 0 Z M 12.859375 -0.8125 C 14.015625 -0.789062 15.132812 -0.914062 16.21875 -1.1875 C 17.300781 -1.457031 18.3125 -1.859375 19.25 -2.390625 C 20.1875 -2.929688 21.03125 -3.597656 21.78125 -4.390625 C 22.53125 -5.191406 23.148438 -6.113281 23.640625 -7.15625 L 23.640625 -13.40625 L 17.1875 -13.40625 C 16.351562 -13.382812 15.492188 -13.332031 14.609375 -13.25 C 13.722656 -13.175781 12.859375 -13.039062 12.015625 -12.84375 C 11.171875 -12.644531 10.367188 -12.382812 9.609375 -12.0625 C 8.847656 -11.738281 8.1875 -11.320312 7.625 -10.8125 C 7.0625 -10.3125 6.613281 -9.710938 6.28125 -9.015625 C 5.945312 -8.328125 5.789062 -7.519531 5.8125 -6.59375 C 5.8125 -5.664062 6.019531 -4.835938 6.4375 -4.109375 C 6.863281 -3.390625 7.414062 -2.785156 8.09375 -2.296875 C 8.769531 -1.804688 9.523438 -1.4375 10.359375 -1.1875 C 11.203125 -0.9375 12.035156 -0.8125 12.859375 -0.8125 Z M 19.328125 -37.015625 L 20.9375 -37.015625 L 16.28125 -30.515625 L 14.84375 -30.515625 Z M 19.328125 -37.015625 "/></g></g></g><g fill="#fff9eb" fill-opacity="1"><g transform="translate(141.797299, 175.99999)"><g><path d="M 14.9375 -1.921875 L 25.5625 -26.421875 L 27.046875 -26.421875 L 15.59375 0 L 14.265625 0 L 2.828125 -26.421875 L 4.328125 -26.421875 Z M 14.9375 -1.921875 "/></g></g></g><g fill="#fff9eb" fill-opacity="1"><g transform="translate(171.797491, 175.99999)"><g><path d="M 6.515625 -20.0625 C 6.941406 -21.039062 7.472656 -21.945312 8.109375 -22.78125 C 8.753906 -23.625 9.492188 -24.347656 10.328125 -24.953125 C 11.171875 -25.554688 12.097656 -26.03125 13.109375 -26.375 C 14.117188 -26.726562 15.203125 -26.90625 16.359375 -26.90625 C 17.867188 -26.90625 19.171875 -26.660156 20.265625 -26.171875 C 21.367188 -25.679688 22.28125 -25 23 -24.125 C 23.71875 -23.257812 24.242188 -22.222656 24.578125 -21.015625 C 24.921875 -19.816406 25.101562 -18.507812 25.125 -17.09375 L 25.140625 0 L 23.796875 0 L 23.796875 -17.09375 C 23.785156 -18.332031 23.632812 -19.472656 23.34375 -20.515625 C 23.0625 -21.566406 22.617188 -22.46875 22.015625 -23.21875 C 21.421875 -23.976562 20.648438 -24.570312 19.703125 -25 C 18.753906 -25.425781 17.613281 -25.628906 16.28125 -25.609375 C 15.09375 -25.597656 13.960938 -25.363281 12.890625 -24.90625 C 11.816406 -24.445312 10.847656 -23.832031 9.984375 -23.0625 C 9.117188 -22.300781 8.382812 -21.40625 7.78125 -20.375 C 7.1875 -19.351562 6.765625 -18.273438 6.515625 -17.140625 L 6.515625 0 L 5.171875 0 L 5.171875 -26.421875 L 6.515625 -26.421875 Z M 6.515625 -20.0625 "/></g></g></g><g fill="#fff9eb" fill-opacity="1"><g transform="translate(201.797683, 175.99999)"><g><path d="M 5.828125 -26.421875 L 16.84375 -26.421875 L 16.84375 -1.3125 L 26.21875 -1.3125 L 26.21875 0 L 5.828125 0 L 5.828125 -1.3125 L 15.53125 -1.3125 L 15.53125 -25.09375 L 5.828125 -25.09375 Z M 14.40625 -33.9375 C 14.40625 -34.164062 14.425781 -34.390625 14.46875 -34.609375 C 14.519531 -34.828125 14.609375 -35.019531 14.734375 -35.1875 C 14.867188 -35.363281 15.046875 -35.5 15.265625 -35.59375 C 15.484375 -35.695312 15.765625 -35.75 16.109375 -35.75 C 16.441406 -35.75 16.71875 -35.695312 16.9375 -35.59375 C 17.15625 -35.5 17.332031 -35.363281 17.46875 -35.1875 C 17.601562 -35.019531 17.695312 -34.828125 17.75 -34.609375 C 17.8125 -34.390625 17.84375 -34.164062 17.84375 -33.9375 C 17.84375 -33.5 17.71875 -33.097656 17.46875 -32.734375 C 17.21875 -32.378906 16.765625 -32.203125 16.109375 -32.203125 C 15.441406 -32.203125 14.988281 -32.378906 14.75 -32.734375 C 14.519531 -33.097656 14.40625 -33.5 14.40625 -33.9375 Z M 14.40625 -33.9375 "/></g></g></g><g fill="#fff9eb" fill-opacity="1"><g transform="translate(231.797876, 175.99999)"><g><path d="M 15.375 -0.828125 C 16.5 -0.828125 17.5625 -0.984375 18.5625 -1.296875 C 19.5625 -1.609375 20.445312 -2.066406 21.21875 -2.671875 C 22 -3.285156 22.632812 -4.039062 23.125 -4.9375 C 23.613281 -5.832031 23.921875 -6.859375 24.046875 -8.015625 L 25.359375 -8.015625 C 25.234375 -6.691406 24.882812 -5.503906 24.3125 -4.453125 C 23.75 -3.398438 23.019531 -2.507812 22.125 -1.78125 C 21.238281 -1.050781 20.210938 -0.488281 19.046875 -0.09375 C 17.890625 0.289062 16.664062 0.484375 15.375 0.484375 C 13.519531 0.484375 11.90625 0.109375 10.53125 -0.640625 C 9.15625 -1.390625 8.007812 -2.375 7.09375 -3.59375 C 6.1875 -4.820312 5.507812 -6.226562 5.0625 -7.8125 C 4.613281 -9.394531 4.382812 -11.023438 4.375 -12.703125 L 4.375 -13.71875 C 4.382812 -15.382812 4.613281 -17.007812 5.0625 -18.59375 C 5.507812 -20.175781 6.1875 -21.582031 7.09375 -22.8125 C 8 -24.039062 9.132812 -25.03125 10.5 -25.78125 C 11.863281 -26.53125 13.472656 -26.90625 15.328125 -26.90625 C 16.710938 -26.90625 17.992188 -26.6875 19.171875 -26.25 C 20.359375 -25.8125 21.390625 -25.1875 22.265625 -24.375 C 23.140625 -23.570312 23.847656 -22.601562 24.390625 -21.46875 C 24.929688 -20.34375 25.253906 -19.085938 25.359375 -17.703125 L 24.046875 -17.703125 C 23.953125 -18.890625 23.664062 -19.96875 23.1875 -20.9375 C 22.71875 -21.90625 22.097656 -22.734375 21.328125 -23.421875 C 20.554688 -24.117188 19.660156 -24.65625 18.640625 -25.03125 C 17.617188 -25.40625 16.515625 -25.59375 15.328125 -25.59375 C 13.648438 -25.59375 12.207031 -25.253906 11 -24.578125 C 9.800781 -23.898438 8.804688 -23.003906 8.015625 -21.890625 C 7.234375 -20.773438 6.65625 -19.503906 6.28125 -18.078125 C 5.90625 -16.648438 5.707031 -15.195312 5.6875 -13.71875 L 5.6875 -12.703125 C 5.707031 -11.179688 5.90625 -9.710938 6.28125 -8.296875 C 6.65625 -6.878906 7.234375 -5.617188 8.015625 -4.515625 C 8.804688 -3.410156 9.804688 -2.519531 11.015625 -1.84375 C 12.234375 -1.164062 13.6875 -0.828125 15.375 -0.828125 Z M 15.375 -0.828125 "/></g></g></g><g fill="#fff9eb" fill-opacity="1"><g transform="translate(261.79808, 175.99999)"><g><path d="M 11.796875 -14.3125 L 11.6875 -14.234375 L 7.625 -10.90625 L 7.625 0 L 6.28125 0 L 6.28125 -37.5 L 7.625 -37.5 L 7.625 -12.328125 L 10.96875 -15.3125 L 23.75 -26.421875 L 25.703125 -26.421875 L 12.8125 -15.1875 L 26.515625 0 L 24.75 0 Z M 11.796875 -14.3125 "/></g></g></g><g fill="#fff9eb" fill-opacity="1"><g transform="translate(291.798261, 175.99999)"><g><path d="M 24.140625 0 C 23.953125 -0.832031 23.820312 -1.65625 23.75 -2.46875 C 23.6875 -3.28125 23.648438 -4.101562 23.640625 -4.9375 C 23.066406 -4.039062 22.382812 -3.25 21.59375 -2.5625 C 20.800781 -1.875 19.941406 -1.304688 19.015625 -0.859375 C 18.085938 -0.421875 17.101562 -0.0859375 16.0625 0.140625 C 15.019531 0.367188 13.953125 0.484375 12.859375 0.484375 C 11.804688 0.484375 10.773438 0.320312 9.765625 0 C 8.753906 -0.3125 7.859375 -0.765625 7.078125 -1.359375 C 6.296875 -1.960938 5.671875 -2.710938 5.203125 -3.609375 C 4.734375 -4.503906 4.5 -5.53125 4.5 -6.6875 C 4.5 -8.269531 4.878906 -9.578125 5.640625 -10.609375 C 6.398438 -11.640625 7.382812 -12.457031 8.59375 -13.0625 C 9.8125 -13.675781 11.171875 -14.101562 12.671875 -14.34375 C 14.171875 -14.59375 15.648438 -14.726562 17.109375 -14.75 L 23.640625 -14.75 L 23.640625 -18.609375 C 23.597656 -19.796875 23.347656 -20.828125 22.890625 -21.703125 C 22.441406 -22.578125 21.835938 -23.300781 21.078125 -23.875 C 20.328125 -24.445312 19.445312 -24.875 18.4375 -25.15625 C 17.4375 -25.445312 16.382812 -25.59375 15.28125 -25.59375 C 14.300781 -25.59375 13.300781 -25.460938 12.28125 -25.203125 C 11.269531 -24.941406 10.347656 -24.546875 9.515625 -24.015625 C 8.691406 -23.484375 8 -22.8125 7.4375 -22 C 6.882812 -21.195312 6.585938 -20.242188 6.546875 -19.140625 L 5.21875 -19.1875 C 5.289062 -20.476562 5.640625 -21.601562 6.265625 -22.5625 C 6.890625 -23.519531 7.675781 -24.316406 8.625 -24.953125 C 9.582031 -25.597656 10.640625 -26.082031 11.796875 -26.40625 C 12.960938 -26.738281 14.125 -26.90625 15.28125 -26.90625 C 16.582031 -26.90625 17.816406 -26.726562 18.984375 -26.375 C 20.148438 -26.03125 21.171875 -25.507812 22.046875 -24.8125 C 22.921875 -24.125 23.613281 -23.253906 24.125 -22.203125 C 24.644531 -21.148438 24.921875 -19.9375 24.953125 -18.5625 L 24.953125 -5.328125 C 24.960938 -4.429688 25.039062 -3.570312 25.1875 -2.75 C 25.34375 -1.9375 25.5 -1.09375 25.65625 -0.21875 L 25.6875 0 Z M 12.859375 -0.8125 C 14.015625 -0.789062 15.132812 -0.914062 16.21875 -1.1875 C 17.300781 -1.457031 18.3125 -1.859375 19.25 -2.390625 C 20.1875 -2.929688 21.03125 -3.597656 21.78125 -4.390625 C 22.53125 -5.191406 23.148438 -6.113281 23.640625 -7.15625 L 23.640625 -13.40625 L 17.1875 -13.40625 C 16.351562 -13.382812 15.492188 -13.332031 14.609375 -13.25 C 13.722656 -13.175781 12.859375 -13.039062 12.015625 -12.84375 C 11.171875 -12.644531 10.367188 -12.382812 9.609375 -12.0625 C 8.847656 -11.738281 8.1875 -11.320312 7.625 -10.8125 C 7.0625 -10.3125 6.613281 -9.710938 6.28125 -9.015625 C 5.945312 -8.328125 5.789062 -7.519531 5.8125 -6.59375 C 5.8125 -5.664062 6.019531 -4.835938 6.4375 -4.109375 C 6.863281 -3.390625 7.414062 -2.785156 8.09375 -2.296875 C 8.769531 -1.804688 9.523438 -1.4375 10.359375 -1.1875 C 11.203125 -0.9375 12.035156 -0.8125 12.859375 -0.8125 Z M 19.328125 -37.015625 L 20.9375 -37.015625 L 16.28125 -30.515625 L 14.84375 -30.515625 Z M 19.328125 -37.015625 "/></g></g></g><g clip-path="url(#116ca46865)"><g clip-path="url(#6cdd8cd9a3)"><g transform="matrix(1, 0, 0, 1, 66, 288)"><g clip-path="url(#9ded5f6d32)"><g clip-path="url(#e19d71977f)"><g clip-path="url(#82173dbd27)"><path fill="#ffeab8" d="M 0.183594 0.289062 L 6.03125 0.289062 L 6.03125 6.140625 L 0.183594 6.140625 Z M 0.183594 0.289062 " fill-opacity="1" fill-rule="nonzero"/></g></g></g></g></g></g><g clip-path="url(#80bb97b178)"><g clip-path="url(#6244af0af8)"><g transform="matrix(1, 0, 0, 1, 66, 295)"><g clip-path="url(#1209988dcc)"><g clip-path="url(#b313a9c7c3)"><g clip-path="url(#a414d37896)"><path fill="#2522ca" d="M 0.183594 0.640625 L 6.03125 0.640625 L 6.03125 6.488281 L 0.183594 6.488281 Z M 0.183594 0.640625 " fill-opacity="1" fill-rule="nonzero"/></g></g></g></g></g></g></svg>