<svg xmlns="http://www.w3.org/2000/svg" xmlns:xlink="http://www.w3.org/1999/xlink" width="500" zoomAndPan="magnify" viewBox="0 0 375 374.999991" height="500" preserveAspectRatio="xMidYMid meet" version="1.0"><defs><g/><clipPath id="705947cbc1"><path d="M 2 33 L 96.71875 33 L 96.71875 88 L 2 88 Z M 2 33 " clip-rule="nonzero"/></clipPath><clipPath id="4b444639d7"><rect x="0" width="97" y="0" height="92"/></clipPath></defs><path stroke-linecap="butt" transform="matrix(0.75, 0, 0, 0.75, 0.0000045, 178.443768)" fill="none" stroke-linejoin="miter" d="M -0.000006 7.502059 L 344.27085 7.502059 " stroke="#2c0e8c" stroke-width="15" stroke-opacity="1" stroke-miterlimit="4"/><path stroke-linecap="butt" transform="matrix(0.75, 0.000000000000000204, -0.000000000000000204, 0.75, 0.0000045, 230.117298)" fill="none" stroke-linejoin="miter" d="M -0.000006 7.499853 L 417.78648 7.499853 " stroke="#2c0e8c" stroke-width="15" stroke-opacity="1" stroke-miterlimit="4"/><path stroke-linecap="butt" transform="matrix(0.75, -0.000000000000000279, 0.000000000000000279, 0.75, 0.0000045, 281.79086)" fill="none" stroke-linejoin="miter" d="M -0.000006 7.497604 L 277.869804 7.497604 " stroke="#2c0e8c" stroke-width="15" stroke-opacity="1" stroke-miterlimit="4"/><path stroke-linecap="butt" transform="matrix(0.75, -0.000000000000000093, 0.000000000000000093, 0.75, 94.749037, 126.94688)" fill="none" stroke-linejoin="miter" d="M 0.00128443 7.49791 L 373.667976 7.49791 " stroke="#2c0e8c" stroke-width="15" stroke-opacity="1" stroke-miterlimit="4"/><g transform="matrix(1, 0, 0, 1, 0, 81)"><g clip-path="url(#4b444639d7)"><g clip-path="url(#705947cbc1)"><g fill="#2c0e8c" fill-opacity="1"><g transform="translate(0.101917, 72.191281)"><g><path d="M 21.15625 0 L 21.15625 -38.546875 C 26.53125 -38.015625 30.679688 -36.0625 33.609375 -32.6875 C 36.535156 -29.320312 38 -24.820312 38 -19.1875 C 38 -13.625 36.515625 -9.15625 33.546875 -5.78125 C 30.585938 -2.414062 26.457031 -0.488281 21.15625 0 Z M 17.03125 15.296875 L 2.09375 15.296875 L 2.09375 -38.546875 L 17.03125 -38.546875 Z M 17.03125 15.296875 "/></g></g><g transform="translate(39.166001, 72.191281)"><g><path d="M 42.359375 0 L 33.140625 0 L 19.109375 -38.546875 L 35.40625 -38.546875 L 45.796875 -9.375 Z M 21.890625 0 L 12.671875 0 L -1.421875 -38.546875 L 14.9375 -38.546875 L 25.34375 -9.375 Z M 47.921875 -15.453125 L 39.578125 -38.546875 L 56.890625 -38.546875 Z M 47.921875 -15.453125 "/></g></g></g></g></g></g></svg>