<svg xmlns="http://www.w3.org/2000/svg" xmlns:xlink="http://www.w3.org/1999/xlink" width="500" zoomAndPan="magnify" viewBox="0 0 375 374.999991" height="500" preserveAspectRatio="xMidYMid meet" version="1.0"><defs><g/><clipPath id="fd35bc6b63"><path d="M 64 68 L 311 68 L 311 307 L 64 307 Z M 64 68 " clip-rule="nonzero"/></clipPath><clipPath id="3531963051"><path d="M 252.53125 38.429688 L 336.324219 122.21875 L 122.070312 336.472656 L 38.277344 252.679688 Z M 252.53125 38.429688 " clip-rule="nonzero"/></clipPath><clipPath id="9421793ac3"><path d="M 252.53125 38.429688 L 336.324219 122.21875 L 122.070312 336.472656 L 38.277344 252.679688 Z M 252.53125 38.429688 " clip-rule="nonzero"/></clipPath><clipPath id="a5d66ac2fc"><rect x="0" width="155" y="0" height="99"/></clipPath></defs><g clip-path="url(#fd35bc6b63)"><g clip-path="url(#3531963051)"><g clip-path="url(#9421793ac3)"><path fill="#2522ca" d="M 159.699219 219.726562 C 158.066406 198.917969 155.9375 175.695312 160.5 161.59375 C 169.847656 132.726562 192.15625 130.957031 213.816406 135.816406 C 214.167969 142.316406 214.769531 148.859375 215.277344 155.253906 C 216.910156 176.066406 219.039062 199.289062 214.476562 213.386719 C 205.132812 242.253906 182.824219 244.027344 161.160156 239.164062 C 160.8125 232.664062 160.207031 226.125 159.699219 219.726562 Z M 161.414062 245.894531 C 183.136719 250.707031 209.199219 249.808594 227.171875 231.835938 C 252.261719 206.742188 245.910156 178.640625 241.933594 154.785156 C 241.273438 150.824219 232.257812 104.132812 249.882812 86.503906 C 264.285156 72.105469 280.515625 75.980469 292.675781 88.140625 C 310.527344 105.992188 288.675781 115.128906 281.652344 122.152344 C 278.664062 125.144531 276.257812 128.746094 276.460938 132.96875 C 276.605469 136.0625 277.863281 139.109375 280.226562 141.46875 C 280.363281 141.609375 280.5 141.742188 280.644531 141.875 C 284.886719 145.757812 291.355469 145.902344 295.964844 142.46875 C 317.976562 126.0625 313.640625 99.753906 296.183594 82.296875 C 277.847656 63.957031 246.210938 64.519531 227.871094 82.855469 C 215.644531 95.085938 213.21875 111.703125 213.566406 129.085938 C 191.839844 124.277344 165.78125 125.175781 147.804688 143.148438 C 122.714844 168.238281 129.070312 196.339844 133.042969 220.195312 C 133.707031 224.15625 142.722656 270.851562 125.09375 288.476562 C 110.695312 302.878906 94.460938 299 82.300781 286.839844 C 64.449219 268.988281 86.300781 259.851562 93.324219 252.828125 C 96.316406 249.835938 98.71875 246.238281 98.519531 242.015625 C 98.371094 238.921875 97.113281 235.875 94.753906 233.511719 C 94.613281 233.371094 94.476562 233.242188 94.332031 233.109375 C 90.09375 229.226562 83.621094 229.078125 79.011719 232.511719 C 57 248.921875 61.335938 275.230469 78.792969 292.6875 C 97.128906 311.023438 128.765625 310.464844 147.105469 292.125 C 159.335938 279.898438 161.757812 263.277344 161.414062 245.894531 " fill-opacity="1" fill-rule="nonzero"/></g></g></g><g transform="matrix(1, 0, 0, 1, 182, 243)"><g clip-path="url(#a5d66ac2fc)"><g fill="#2522ca" fill-opacity="1"><g transform="translate(0.715696, 77.057111)"><g><path d="M 9.8125 0.3125 C 8.582031 0.3125 7.5 0.0625 6.5625 -0.4375 C 5.625 -0.9375 4.90625 -1.625 4.40625 -2.5 C 3.90625 -3.382812 3.65625 -4.382812 3.65625 -5.5 C 3.65625 -6.613281 3.90625 -7.609375 4.40625 -8.484375 C 4.90625 -9.367188 5.625 -10.066406 6.5625 -10.578125 C 7.5 -11.085938 8.582031 -11.34375 9.8125 -11.34375 C 11.0625 -11.34375 12.15625 -11.09375 13.09375 -10.59375 C 14.039062 -10.09375 14.757812 -9.398438 15.25 -8.515625 C 15.75 -7.640625 16 -6.644531 16 -5.53125 C 16 -3.84375 15.4375 -2.445312 14.3125 -1.34375 C 13.1875 -0.238281 11.6875 0.3125 9.8125 0.3125 Z M 9.8125 0.3125 "/></g></g></g><g fill="#2522ca" fill-opacity="1"><g transform="translate(17.626713, 77.057111)"><g><path d="M 20.59375 0 L 10.515625 0 L 1.390625 -38.375 L 10.328125 -38.375 L 15.96875 -12.421875 L 16.703125 -12.421875 L 24.015625 -38.375 L 32.359375 -38.375 L 39.90625 -12.421875 L 40.640625 -12.421875 L 46.078125 -38.375 L 54.765625 -38.375 L 45.765625 0 L 35.640625 0 L 28.359375 -26.140625 L 27.625 -26.140625 Z M 20.59375 0 "/></g></g></g><g fill="#2522ca" fill-opacity="1"><g transform="translate(73.753478, 77.057111)"><g><path d="M 10.328125 -42.96875 C 8.585938 -42.96875 7.171875 -43.492188 6.078125 -44.546875 C 4.992188 -45.609375 4.453125 -46.972656 4.453125 -48.640625 C 4.453125 -50.296875 4.992188 -51.648438 6.078125 -52.703125 C 7.171875 -53.753906 8.585938 -54.28125 10.328125 -54.28125 C 11.492188 -54.28125 12.523438 -54.035156 13.421875 -53.546875 C 14.328125 -53.066406 15.03125 -52.398438 15.53125 -51.546875 C 16.03125 -50.703125 16.28125 -49.734375 16.28125 -48.640625 C 16.28125 -47.554688 16.03125 -46.582031 15.53125 -45.71875 C 15.03125 -44.863281 14.328125 -44.191406 13.421875 -43.703125 C 12.523438 -43.210938 11.492188 -42.96875 10.328125 -42.96875 Z M 5.53125 0 L 5.53125 -38.375 L 15.171875 -38.375 L 15.171875 0 Z M 5.53125 0 "/></g></g></g><g fill="#2522ca" fill-opacity="1"><g transform="translate(94.422599, 77.057111)"><g><path d="M 5.53125 0 L 5.53125 -53.796875 L 15.171875 -53.796875 L 15.171875 -23.9375 L 16.109375 -23.9375 L 27.21875 -38.375 L 36.984375 -38.375 L 36.984375 -37.578125 L 23.9375 -20.734375 L 38.453125 -0.875 L 38.453125 0 L 28.296875 0 L 16.109375 -16.1875 L 15.171875 -16.1875 L 15.171875 0 Z M 5.53125 0 "/></g></g></g><g fill="#2522ca" fill-opacity="1"><g transform="translate(132.942334, 77.057111)"><g><path d="M 10.328125 -42.96875 C 8.585938 -42.96875 7.171875 -43.492188 6.078125 -44.546875 C 4.992188 -45.609375 4.453125 -46.972656 4.453125 -48.640625 C 4.453125 -50.296875 4.992188 -51.648438 6.078125 -52.703125 C 7.171875 -53.753906 8.585938 -54.28125 10.328125 -54.28125 C 11.492188 -54.28125 12.523438 -54.035156 13.421875 -53.546875 C 14.328125 -53.066406 15.03125 -52.398438 15.53125 -51.546875 C 16.03125 -50.703125 16.28125 -49.734375 16.28125 -48.640625 C 16.28125 -47.554688 16.03125 -46.582031 15.53125 -45.71875 C 15.03125 -44.863281 14.328125 -44.191406 13.421875 -43.703125 C 12.523438 -43.210938 11.492188 -42.96875 10.328125 -42.96875 Z M 5.53125 0 L 5.53125 -38.375 L 15.171875 -38.375 L 15.171875 0 Z M 5.53125 0 "/></g></g></g></g></g></svg>